<?xml version="1.0" encoding="utf-8" ?>
<!DOCTYPE svg PUBLIC "-//W3C//DTD SVG 1.1//EN" "http://www.w3.org/Graphics/SVG/1.1/DTD/svg11.dtd">
<svg height="756" version="1.1" width="852" xmlns="http://www.w3.org/2000/svg">
<ellipse cx="398" cy="22" fill="#000000" rx="8.0" ry="8.0" stroke="#000000" stroke-width="1"/>
<rect fill="#00ff" height="46" rx="16" ry="16" stroke="#00ff" stroke-width="1" width="115" x="342" y="78"/>
<rect fill="#ffffff" height="46" rx="16" ry="16" stroke="#000000" stroke-width="1" width="115" x="342" y="78"/>
<rect fill="#ffffff" height="44" rx="16" ry="16" stroke="#ffffff" stroke-width="1" width="113" x="343" y="79"/>
<text font-family="Lucida Grande" font-size="13" x="367" y="92">
Requested</text>
<line fill="#000000" stroke="#000000" stroke-width="1" x1="342" x2="456" y1="102" y2="102"/>
<rect fill="#00ff" height="46" rx="16" ry="16" stroke="#00ff" stroke-width="1" width="115" x="334" y="190"/>
<rect fill="#ffffff" height="46" rx="16" ry="16" stroke="#000000" stroke-width="1" width="115" x="334" y="190"/>
<rect fill="#ffffff" height="44" rx="16" ry="16" stroke="#ffffff" stroke-width="1" width="113" x="335" y="191"/>
<text font-family="Lucida Grande" font-size="13" x="363" y="204">
Reserved</text>
<line fill="#000000" stroke="#000000" stroke-width="1" x1="334" x2="448" y1="214" y2="214"/>
<rect fill="#00ff" height="46" rx="16" ry="16" stroke="#00ff" stroke-width="1" width="115" x="334" y="294"/>
<rect fill="#ffffff" height="46" rx="16" ry="16" stroke="#000000" stroke-width="1" width="115" x="334" y="294"/>
<rect fill="#ffffff" height="44" rx="16" ry="16" stroke="#ffffff" stroke-width="1" width="113" x="335" y="295"/>
<text font-family="Lucida Grande" font-size="13" x="360" y="308">
Auto start</text>
<line fill="#000000" stroke="#000000" stroke-width="1" x1="334" x2="448" y1="318" y2="318"/>
<rect fill="#00ff" height="46" rx="16" ry="16" stroke="#00ff" stroke-width="1" width="115" x="334" y="462"/>
<rect fill="#ffffff" height="46" rx="16" ry="16" stroke="#000000" stroke-width="1" width="115" x="334" y="462"/>
<rect fill="#ffffff" height="44" rx="16" ry="16" stroke="#ffffff" stroke-width="1" width="113" x="335" y="463"/>
<text font-family="Lucida Grande" font-size="13" x="365" y="476">
Running</text>
<line fill="#000000" stroke="#000000" stroke-width="1" x1="334" x2="448" y1="486" y2="486"/>
<rect fill="#00ff" height="46" rx="16" ry="16" stroke="#00ff" stroke-width="1" width="115" x="334" y="566"/>
<rect fill="#ffffff" height="46" rx="16" ry="16" stroke="#000000" stroke-width="1" width="115" x="334" y="566"/>
<rect fill="#ffffff" height="44" rx="16" ry="16" stroke="#ffffff" stroke-width="1" width="113" x="335" y="567"/>
<text font-family="Lucida Grande" font-size="13" x="358" y="580">
Succeeded</text>
<line fill="#000000" stroke="#000000" stroke-width="1" x1="334" x2="448" y1="590" y2="590"/>
<rect fill="#00ff" height="46" rx="16" ry="16" stroke="#00ff" stroke-width="1" width="115" x="550" y="566"/>
<rect fill="#ffffff" height="46" rx="16" ry="16" stroke="#000000" stroke-width="1" width="115" x="550" y="566"/>
<rect fill="#ffffff" height="44" rx="16" ry="16" stroke="#ffffff" stroke-width="1" width="113" x="551" y="567"/>
<text font-family="Lucida Grande" font-size="13" x="575" y="580">
Timed out</text>
<line fill="#000000" stroke="#000000" stroke-width="1" x1="550" x2="664" y1="590" y2="590"/>
<rect fill="#00ff" height="46" rx="16" ry="16" stroke="#00ff" stroke-width="1" width="115" x="686" y="566"/>
<rect fill="#ffffff" height="46" rx="16" ry="16" stroke="#000000" stroke-width="1" width="115" x="686" y="566"/>
<rect fill="#ffffff" height="44" rx="16" ry="16" stroke="#ffffff" stroke-width="1" width="113" x="687" y="567"/>
<text font-family="Lucida Grande" font-size="13" x="725" y="580">
Failed</text>
<line fill="#000000" stroke="#000000" stroke-width="1" x1="686" x2="800" y1="590" y2="590"/>
<rect fill="#00ff" height="46" rx="16" ry="16" stroke="#00ff" stroke-width="1" width="115" x="22" y="566"/>
<rect fill="#ffffff" height="46" rx="16" ry="16" stroke="#000000" stroke-width="1" width="115" x="22" y="566"/>
<rect fill="#ffffff" height="44" rx="16" ry="16" stroke="#ffffff" stroke-width="1" width="113" x="23" y="567"/>
<text font-family="Lucida Grande" font-size="13" x="37" y="580">
Not Accepted</text>
<line fill="#000000" stroke="#000000" stroke-width="1" x1="22" x2="136" y1="590" y2="590"/>
<polyline fill="none" points="398,235 398,294" stroke="#000000" stroke-width="1"/>
<line fill="#000000" stroke="#000000" stroke-width="1" x1="391" x2="398" y1="282" y2="294"/>
<line fill="#000000" stroke="#000000" stroke-width="1" x1="405" x2="398" y1="282" y2="294"/>
<text font-family="Lucida Grande" font-size="13" x="241" y="269">
GUI always auto provisions</text>
<polyline fill="none" points="390,507 390,566" stroke="#000000" stroke-width="1"/>
<line fill="#000000" stroke="#000000" stroke-width="1" x1="383" x2="390" y1="554" y2="566"/>
<line fill="#000000" stroke="#000000" stroke-width="1" x1="397" x2="390" y1="554" y2="566"/>
<text font-family="Lucida Grande" font-size="13" x="400" y="543">
Endtime reached</text>
<polyline fill="none" points="398,30 398,78" stroke="#333399" stroke-width="1"/>
<line fill="#333399" stroke="#333399" stroke-width="1" x1="391" x2="398" y1="66" y2="78"/>
<line fill="#333399" stroke="#333399" stroke-width="1" x1="405" x2="398" y1="66" y2="78"/>
<rect fill="#00ff" height="46" rx="16" ry="16" stroke="#00ff" stroke-width="1" width="115" x="166" y="566"/>
<rect fill="#ffffff" height="46" rx="16" ry="16" stroke="#000000" stroke-width="1" width="115" x="166" y="566"/>
<rect fill="#ffffff" height="44" rx="16" ry="16" stroke="#ffffff" stroke-width="1" width="113" x="167" y="567"/>
<text font-family="Lucida Grande" font-size="13" x="193" y="580">
Cancelled</text>
<line fill="#000000" stroke="#000000" stroke-width="1" x1="166" x2="280" y1="590" y2="590"/>
<polyline fill="none" points="334,507 280,566" stroke="#333399" stroke-width="1"/>
<line fill="#333399" stroke="#333399" stroke-width="1" x1="282" x2="280" y1="552" y2="566"/>
<line fill="#333399" stroke="#333399" stroke-width="1" x1="293" x2="280" y1="561" y2="566"/>
<text font-family="Lucida Grande" font-size="13" x="213" y="531">
Cancel request</text>
<polyline fill="none" points="334,339 254,390 254,566" stroke="#333399" stroke-width="1"/>
<line fill="#333399" stroke="#333399" stroke-width="1" x1="247" x2="254" y1="554" y2="566"/>
<line fill="#333399" stroke="#333399" stroke-width="1" x1="261" x2="254" y1="554" y2="566"/>
<text font-family="Lucida Grande" font-size="13" x="256" y="436">
Cancel request</text>
<polyline fill="none" points="398,123 398,190" stroke="#333399" stroke-width="1"/>
<line fill="#333399" stroke="#333399" stroke-width="1" x1="391" x2="398" y1="178" y2="190"/>
<line fill="#333399" stroke="#333399" stroke-width="1" x1="405" x2="398" y1="178" y2="190"/>
<text font-family="Lucida Grande" font-size="13" x="412" y="164">
Request succeeded</text>
<polyline fill="none" points="334,235 206,318 206,566" stroke="#333399" stroke-width="1"/>
<line fill="#333399" stroke="#333399" stroke-width="1" x1="199" x2="206" y1="554" y2="566"/>
<line fill="#333399" stroke="#333399" stroke-width="1" x1="213" x2="206" y1="554" y2="566"/>
<text font-family="Lucida Grande" font-size="13" x="208" y="371">
Cancel request</text>
<polyline fill="none" points="342,123 78,222 78,566" stroke="#333399" stroke-width="1"/>
<line fill="#333399" stroke="#333399" stroke-width="1" x1="71" x2="78" y1="554" y2="566"/>
<line fill="#333399" stroke="#333399" stroke-width="1" x1="85" x2="78" y1="554" y2="566"/>
<text font-family="Lucida Grande" font-size="13" x="80" y="258">
Request failed</text>
<ellipse cx="386" cy="730" fill="#000000" rx="12.0" ry="12.0" stroke="#000000" stroke-width="1"/>
<ellipse cx="386" cy="730" fill="#ffffff" rx="11.0" ry="11.0" stroke="#ffffff" stroke-width="1"/>
<ellipse cx="385" cy="729" fill="#000000" rx="7.5" ry="7.5" stroke="#000000" stroke-width="1"/>
<polyline fill="none" points="136,611 375,724" stroke="#333399" stroke-width="1"/>
<line fill="#333399" stroke="#333399" stroke-width="1" x1="361" x2="375" y1="725" y2="724"/>
<line fill="#333399" stroke="#333399" stroke-width="1" x1="367" x2="375" y1="712" y2="724"/>
<polyline fill="none" points="280,611 378,721" stroke="#333399" stroke-width="1"/>
<line fill="#333399" stroke="#333399" stroke-width="1" x1="364" x2="378" y1="716" y2="721"/>
<line fill="#333399" stroke="#333399" stroke-width="1" x1="375" x2="378" y1="707" y2="721"/>
<polyline fill="none" points="386,611 386,718" stroke="#333399" stroke-width="1"/>
<line fill="#333399" stroke="#333399" stroke-width="1" x1="379" x2="386" y1="706" y2="718"/>
<line fill="#333399" stroke="#333399" stroke-width="1" x1="393" x2="386" y1="706" y2="718"/>
<polyline fill="none" points="686,611 397,725" stroke="#333399" stroke-width="1"/>
<line fill="#333399" stroke="#333399" stroke-width="1" x1="405" x2="397" y1="714" y2="725"/>
<line fill="#333399" stroke="#333399" stroke-width="1" x1="410" x2="397" y1="727" y2="725"/>
<polyline fill="none" points="550,611 395,722" stroke="#333399" stroke-width="1"/>
<line fill="#333399" stroke="#333399" stroke-width="1" x1="400" x2="395" y1="709" y2="722"/>
<line fill="#333399" stroke="#333399" stroke-width="1" x1="408" x2="395" y1="720" y2="722"/>
<polygon fill="#ffffff" points="662,654 827,654 837,664 837,709 662,709 662,654" stroke="#ffffff" stroke-width="1"/>
<polyline fill="none" points="662,654 827,654 837,664 837,709 662,709 662,654" stroke="#000000" stroke-width="1"/>
<polygon fill="#ffffff" points="827,654 837,664 827,664 827,654" stroke="#ffffff" stroke-width="1"/>
<polyline fill="none" points="827,654 837,664 827,664 827,654" stroke="#000000" stroke-width="1"/>
<text font-family="Lucida Grande" font-size="13" x="665" y="670">
Any transient state can </text>
<text font-family="Lucida Grande" font-size="13" x="665" y="686">
transfer to Failed</text>
<line fill="#000000" stroke="#000000" stroke-width="1" x1="750" x2="750" y1="654" y2="649"/>
<line fill="#000000" stroke="#000000" stroke-width="1" x1="750" x2="750" y1="644" y2="639"/>
<line fill="#000000" stroke="#000000" stroke-width="1" x1="750" x2="750" y1="634" y2="629"/>
<line fill="#000000" stroke="#000000" stroke-width="1" x1="750" x2="750" y1="624" y2="619"/>
<line fill="#000000" stroke="#000000" stroke-width="1" x1="750" x2="750" y1="614" y2="611"/>
<polygon fill="#ffffff" points="14,14 184,14 194,24 194,72 14,72 14,14" stroke="#ffffff" stroke-width="1"/>
<polyline fill="none" points="14,14 184,14 194,24 194,72 14,72 14,14" stroke="#000000" stroke-width="1"/>
<polygon fill="#ffffff" points="184,14 194,24 184,24 184,14" stroke="#ffffff" stroke-width="1"/>
<polyline fill="none" points="184,14 194,24 184,24 184,14" stroke="#000000" stroke-width="1"/>
<text font-family="Lucida Grande" font-size="13" x="17" y="30">
ReservationStatus </text>
<text font-family="Lucida Grande" font-size="13" x="17" y="46">
State diagram for GUI v1.1</text>
<polyline fill="none" points="448,206 558,206 558,318 448,318" stroke="#333399" stroke-width="1"/>
<line fill="#333399" stroke="#333399" stroke-width="1" x1="460" x2="448" y1="311" y2="318"/>
<line fill="#333399" stroke="#333399" stroke-width="1" x1="460" x2="448" y1="325" y2="318"/>
<text font-family="Lucida Grande" font-size="13" x="498" y="276">
Provision</text>
<rect fill="#00ff" height="48" rx="16" ry="16" stroke="#00ff" stroke-width="1" width="120" x="550" y="390"/>
<rect fill="#ffffff" height="48" rx="16" ry="16" stroke="#000000" stroke-width="1" width="120" x="550" y="390"/>
<rect fill="#ffffff" height="46" rx="16" ry="16" stroke="#ffffff" stroke-width="1" width="118" x="551" y="391"/>
<text font-family="Lucida Grande" font-size="13" x="578" y="404">
Scheduled</text>
<line fill="#000000" stroke="#000000" stroke-width="1" x1="550" x2="669" y1="414" y2="414"/>
<polyline fill="none" points="550,437 448,462" stroke="#333399" stroke-width="1"/>
<line fill="#333399" stroke="#333399" stroke-width="1" x1="457" x2="448" y1="452" y2="462"/>
<line fill="#333399" stroke="#333399" stroke-width="1" x1="461" x2="448" y1="465" y2="462"/>
<text font-family="Lucida Grande" font-size="13" x="467" y="437">
Provision</text>
<polyline fill="none" points="448,222 614,222 614,390" stroke="#333399" stroke-width="1"/>
<line fill="#333399" stroke="#333399" stroke-width="1" x1="607" x2="614" y1="378" y2="390"/>
<line fill="#333399" stroke="#333399" stroke-width="1" x1="621" x2="614" y1="378" y2="390"/>
<text font-family="Lucida Grande" font-size="13" x="617" y="276">
No provision, Start time reached</text>
<polyline fill="none" points="390,339 390,462" stroke="#333399" stroke-width="1"/>
<line fill="#333399" stroke="#333399" stroke-width="1" x1="383" x2="390" y1="450" y2="462"/>
<line fill="#333399" stroke="#333399" stroke-width="1" x1="397" x2="390" y1="450" y2="462"/>
<text font-family="Lucida Grande" font-size="13" x="393" y="376">
Start time reached</text>
<polyline fill="none" points="614,437 614,566" stroke="#333399" stroke-width="1"/>
<line fill="#333399" stroke="#333399" stroke-width="1" x1="607" x2="614" y1="554" y2="566"/>
<line fill="#333399" stroke="#333399" stroke-width="1" x1="621" x2="614" y1="554" y2="566"/>
<text font-family="Lucida Grande" font-size="13" x="610" y="506">
End time reached</text>
</svg>
